<?xml version="1.0" ?><!DOCTYPE svg  PUBLIC '-//W3C//DTD SVG 1.1//EN'  'http://www.w3.org/Graphics/SVG/1.1/DTD/svg11.dtd'><svg enable-background="new 0 0 128 128" id="Слой_1" version="1.1" viewBox="0 0 128 128" xml:space="preserve" xmlns="http://www.w3.org/2000/svg" xmlns:xlink="http://www.w3.org/1999/xlink"><g><g><g><g><path d="M101.3,124H26.7c-12,0-21.3-10.5-19.8-22.5l5-40c1.3-10,9.8-17.5,19.8-17.5h64.7      c10.1,0,18.6,7.5,19.8,17.5l5,40C122.7,113.5,113.4,124,101.3,124z" fill="#B9D53C"/></g></g></g><g opacity="0.15"><g><g><path d="M116.9,67.5l-0.7-6c-1.3-10-9.8-17.5-19.8-17.5H67c-7.2,5.7-13.5,12.6-17.8,20C38,83.3,44.7,89,64,89      C82.1,89,104.9,84,116.9,67.5z" fill="#62345B"/></g></g></g><g><g><g><path d="M6.8,101.5c-0.1,1-0.2,2-0.1,3h114.7c0-1,0-2-0.1-3l-1.1-9H7.9L6.8,101.5z" fill="#FFFFFF"/></g></g></g><g><g><g><g><g><circle cx="64.9" cy="54" fill="#FFFFFF" r="35"/></g></g></g><g><g><g><path d="M38,32.7l-0.9,0C32.5,38.6,29.9,46,29.9,54c0,0.1,0,0.2,0,0.4l0.7,0.5l11.7-8.4L38,32.7z" fill="#636067"/></g></g></g><g><g><g><path d="M92.9,33l-0.2,0l-4.8,13.6l11.5,8.8l0.5-0.3c0-0.4,0-0.7,0-1.1C99.9,46.1,97.3,38.9,92.9,33z" fill="#636067"/></g></g></g><g><g><g><path d="M99.3,56.9c-0.3,0-0.6-0.1-0.9-0.3L87,47.8c-0.5-0.4-0.7-1.1-0.5-1.7l4.8-13.6c0.2-0.6,0.8-1,1.4-1        l0.2,0c0.8,0,1.5,0.7,1.5,1.5c0,0.4-0.2,0.8-0.5,1.1l-4.2,12l9,6.9c0.3-0.3,0.7-0.5,1.1-0.5c0.8,0,1.5,0.7,1.5,1.5        c0,0.3,0,0.6,0,0.8l0,0.3c0,0.5-0.3,0.9-0.6,1.2l-0.5,0.3C99.9,56.8,99.6,56.9,99.3,56.9z" fill="#62355C"/></g></g></g><g><g><g><path d="M53.2,21l11.6,8.5l11.7-8.4l0-0.1c-3.6-1.3-7.6-2-11.6-2C60.8,19,56.9,19.7,53.2,21z" fill="#636067"/></g></g></g><g><g><g><path d="M36.4,74.4c4.5,6.3,11.1,11,18.7,13.2l0.4-0.3l-5-13.5L36.4,74.4z" fill="#636067"/></g></g></g><g><g><g><g><path d="M35.8,54c0-18.3,14-33.2,31.8-34.8c-1-0.1-2.1-0.2-3.2-0.2c-19.3,0-35,15.7-35,35         c0,19.3,15.7,35,35,35c1.1,0,2.1-0.1,3.2-0.2C49.8,87.2,35.8,72.3,35.8,54z" fill="#FFFFFF"/></g></g></g></g><g><g><g><path d="M55.1,89.1c-0.4,0-0.9-0.2-1.2-0.6c-0.4-0.5-0.4-1.1-0.2-1.6l-4.3-11.6l-12.9,0.6        c-0.8,0-1.5-0.6-1.6-1.4c0-0.8,0.6-1.5,1.4-1.6l14-0.6c0.6,0,1.2,0.4,1.5,1l5,13.5c0.2,0.6,0,1.3-0.5,1.7l-0.4,0.3        C55.8,89,55.4,89.1,55.1,89.1z" fill="#62355C"/></g></g></g><g><g><g><path d="M93.7,73.8L93.7,73.8l-14.4-0.2l-4.6,13.7l0.3,0.2C82.7,85.2,89.3,80.3,93.7,73.8z" fill="#636067"/></g></g></g><g><g><g><path d="M75,89c-0.3,0-0.6-0.1-0.9-0.3l-0.3-0.2c-0.5-0.4-0.7-1.1-0.5-1.7l4.6-13.7c0.2-0.6,0.8-1,1.4-1        l14.4,0.1c0.6,0,1.2,0.4,1.4,1c0.3,0.8-0.2,1.6-1,1.9c-0.2,0.1-0.4,0.1-0.6,0.1l-13.2-0.1l-4,11.9c0.2,0.5,0.1,1-0.2,1.4        C75.9,88.8,75.4,89,75,89z" fill="#62355C"/></g></g></g><g><g><g><path d="M64.9,90.5c-20.1,0-36.5-16.4-36.5-36.5s16.4-36.5,36.5-36.5s36.5,16.4,36.5,36.5S85,90.5,64.9,90.5z         M64.9,20.5c-18.5,0-33.5,15-33.5,33.5s15,33.5,33.5,33.5c18.5,0,33.5-15,33.5-33.5S83.3,20.5,64.9,20.5z" fill="#62355C"/></g></g></g><g><g><g><polygon fill="#636067" points="56.4,64.6 51.2,48.6 64.9,38.7 78.5,48.6 73.3,64.6       "/></g></g></g><g><g><g><path d="M73.3,66.1H56.4c-0.6,0-1.2-0.4-1.4-1l-5.2-16c-0.2-0.6,0-1.3,0.5-1.7L64,37.5c0.5-0.4,1.2-0.4,1.8,0        l13.6,9.9c0.5,0.4,0.7,1.1,0.5,1.7l-5.2,16C74.5,65.7,73.9,66.1,73.3,66.1z M57.5,63.1h14.6l4.5-13.9l-11.8-8.6L53,49.2        L57.5,63.1z" fill="#62355C"/></g></g></g><g><g><g><path d="M79.3,75.1c-0.5,0-1-0.2-1.2-0.7l-6-9c-0.5-0.7-0.3-1.6,0.4-2.1c0.7-0.5,1.6-0.3,2.1,0.4l6,9        c0.5,0.7,0.3,1.6-0.4,2.1C79.9,75.1,79.6,75.1,79.3,75.1z" fill="#62355C"/></g></g></g><g><g><g><path d="M50.4,75.3c-0.3,0-0.6-0.1-0.8-0.2c-0.7-0.5-0.9-1.4-0.4-2.1l6-9.2c0.5-0.7,1.4-0.9,2.1-0.4        c0.7,0.5,0.9,1.4,0.4,2.1l-6,9.2C51.4,75.1,50.9,75.3,50.4,75.3z" fill="#62355C"/></g></g></g><g><g><g><path d="M64.9,40.2c-0.8,0-1.5-0.7-1.5-1.5l0-9.2c0-0.8,0.7-1.5,1.5-1.5c0,0,0,0,0,0c0.8,0,1.5,0.7,1.5,1.5        l0,9.2C66.4,39.5,65.7,40.2,64.9,40.2C64.9,40.2,64.9,40.2,64.9,40.2z" fill="#62355C"/></g></g></g><g><g><g><path d="M78.5,50.1c-0.7,0-1.3-0.5-1.5-1.2c-0.2-0.8,0.3-1.6,1.2-1.8l9.4-2c0.8-0.2,1.6,0.3,1.8,1.2        c0.2,0.8-0.3,1.6-1.2,1.8l-9.4,2C78.7,50.1,78.6,50.1,78.5,50.1z" fill="#62355C"/></g></g></g><g><g><g><path d="M51.3,50.1c-0.1,0-0.2,0-0.3,0L42,48c-0.8-0.2-1.3-1-1.1-1.8c0.2-0.8,1-1.3,1.8-1.1l8.9,2.1        c0.8,0.2,1.3,1,1.1,1.8C52.5,49.6,51.9,50.1,51.3,50.1z" fill="#62355C"/></g></g></g><g><g><g><path d="M30.6,56.4c-0.3,0-0.6-0.1-0.9-0.3L29,55.6c-0.4-0.3-0.6-0.7-0.6-1.2l0-0.4c0-0.8,0.7-1.5,1.5-1.5        c0.4,0,0.7,0.1,1,0.3l9.7-6.9l-3.7-11.7c-0.7-0.1-1.3-0.7-1.3-1.5c0-0.8,0.7-1.5,1.5-1.5l0.9,0c0.6,0,1.2,0.4,1.4,1.1        l4.3,13.8c0.2,0.6,0,1.3-0.6,1.7l-11.7,8.4C31.2,56.3,30.9,56.4,30.6,56.4z" fill="#62355C"/></g></g></g><g><g><g><path d="M64.8,31c-0.3,0-0.6-0.1-0.9-0.3l-11.6-8.5c-0.7-0.5-0.8-1.4-0.3-2.1c0.5-0.7,1.4-0.8,2.1-0.3        l10.7,7.9L75.4,20c0.2-0.2,0.4-0.3,0.6-0.4c0.8-0.3,1.6,0.1,1.9,0.9c0.2,0.6,0,1.4-0.5,1.7l-11.7,8.4        C65.4,30.9,65.1,31,64.8,31z" fill="#62355C"/></g></g></g></g></g><g><g><g><path d="M101.3,124H26.7c-12,0-21.3-10.5-19.8-22.5l5-40c1.3-10,9.8-17.5,19.8-17.5h64.7      c10.1,0,18.6,7.5,19.8,17.5l5,40C122.7,113.5,113.4,124,101.3,124z" fill="#B9D53C"/></g></g></g><g opacity="0.15"><g><g><path d="M116.9,67.5l-0.7-6c-1.3-10-9.8-17.5-19.8-17.5H67c-7.2,5.7-13.5,12.6-17.8,20C38,83.3,44.7,89,64,89      C82.1,89,104.9,84,116.9,67.5z" fill="#62345B"/></g></g></g><g><g><g><path d="M6.8,101.5c-0.1,1-0.2,2-0.1,3h114.7c0-1,0-2-0.1-3l-1.1-9H7.9L6.8,101.5z" fill="#FFFFFF"/></g></g></g><g><g><g><g><g><circle cx="64.9" cy="54" fill="#FFFFFF" r="35"/></g></g></g><g><g><g><path d="M38,32.7l-0.9,0C32.5,38.6,29.9,46,29.9,54c0,0.1,0,0.2,0,0.4l0.7,0.5l11.7-8.4L38,32.7z" fill="#636067"/></g></g></g><g><g><g><path d="M92.9,33l-0.2,0l-4.8,13.6l11.5,8.8l0.5-0.3c0-0.4,0-0.7,0-1.1C99.9,46.1,97.3,38.9,92.9,33z" fill="#636067"/></g></g></g><g><g><g><path d="M99.3,56.9c-0.3,0-0.6-0.1-0.9-0.3L87,47.8c-0.5-0.4-0.7-1.1-0.5-1.7l4.8-13.6c0.2-0.6,0.8-1,1.4-1        l0.2,0c0.8,0,1.5,0.7,1.5,1.5c0,0.4-0.2,0.8-0.5,1.1l-4.2,12l9,6.9c0.3-0.3,0.7-0.5,1.1-0.5c0.8,0,1.5,0.7,1.5,1.5        c0,0.3,0,0.6,0,0.8l0,0.3c0,0.5-0.3,0.9-0.6,1.2l-0.5,0.3C99.9,56.8,99.6,56.9,99.3,56.9z" fill="#62355C"/></g></g></g><g><g><g><path d="M53.2,21l11.6,8.5l11.7-8.4l0-0.1c-3.6-1.3-7.6-2-11.6-2C60.8,19,56.9,19.7,53.2,21z" fill="#636067"/></g></g></g><g><g><g><path d="M36.4,74.4c4.5,6.3,11.1,11,18.7,13.2l0.4-0.3l-5-13.5L36.4,74.4z" fill="#636067"/></g></g></g><g><g><g><g><path d="M35.8,54c0-18.3,14-33.2,31.8-34.8c-1-0.1-2.1-0.2-3.2-0.2c-19.3,0-35,15.7-35,35         c0,19.3,15.7,35,35,35c1.1,0,2.1-0.1,3.2-0.2C49.8,87.2,35.8,72.3,35.8,54z" fill="#FFFFFF"/></g></g></g></g><g><g><g><path d="M55.1,89.1c-0.4,0-0.9-0.2-1.2-0.6c-0.4-0.5-0.4-1.1-0.2-1.6l-4.3-11.6l-12.9,0.6        c-0.8,0-1.5-0.6-1.6-1.4c0-0.8,0.6-1.5,1.4-1.6l14-0.6c0.6,0,1.2,0.4,1.5,1l5,13.5c0.2,0.6,0,1.3-0.5,1.7l-0.4,0.3        C55.8,89,55.4,89.1,55.1,89.1z" fill="#62355C"/></g></g></g><g><g><g><path d="M93.7,73.8L93.7,73.8l-14.4-0.2l-4.6,13.7l0.3,0.2C82.7,85.2,89.3,80.3,93.7,73.8z" fill="#636067"/></g></g></g><g><g><g><path d="M75,89c-0.3,0-0.6-0.1-0.9-0.3l-0.3-0.2c-0.5-0.4-0.7-1.1-0.5-1.7l4.6-13.7c0.2-0.6,0.8-1,1.4-1        l14.4,0.1c0.6,0,1.2,0.4,1.4,1c0.3,0.8-0.2,1.6-1,1.9c-0.2,0.1-0.4,0.1-0.6,0.1l-13.2-0.1l-4,11.9c0.2,0.5,0.1,1-0.2,1.4        C75.9,88.8,75.4,89,75,89z" fill="#62355C"/></g></g></g><g><g><g><path d="M64.9,90.5c-20.1,0-36.5-16.4-36.5-36.5s16.4-36.5,36.5-36.5s36.5,16.4,36.5,36.5S85,90.5,64.9,90.5z         M64.9,20.5c-18.5,0-33.5,15-33.5,33.5s15,33.5,33.5,33.5c18.5,0,33.5-15,33.5-33.5S83.3,20.5,64.9,20.5z" fill="#62355C"/></g></g></g><g><g><g><polygon fill="#636067" points="56.4,64.6 51.2,48.6 64.9,38.7 78.5,48.6 73.3,64.6       "/></g></g></g><g><g><g><path d="M73.3,66.1H56.4c-0.6,0-1.2-0.4-1.4-1l-5.2-16c-0.2-0.6,0-1.3,0.5-1.7L64,37.5c0.5-0.4,1.2-0.4,1.8,0        l13.6,9.9c0.5,0.4,0.7,1.1,0.5,1.7l-5.2,16C74.5,65.7,73.9,66.1,73.3,66.1z M57.5,63.1h14.6l4.5-13.9l-11.8-8.6L53,49.2        L57.5,63.1z" fill="#62355C"/></g></g></g><g><g><g><path d="M79.3,75.1c-0.5,0-1-0.2-1.2-0.7l-6-9c-0.5-0.7-0.3-1.6,0.4-2.1c0.7-0.5,1.6-0.3,2.1,0.4l6,9        c0.5,0.7,0.3,1.6-0.4,2.1C79.9,75.1,79.6,75.1,79.3,75.1z" fill="#62355C"/></g></g></g><g><g><g><path d="M50.4,75.3c-0.3,0-0.6-0.1-0.8-0.2c-0.7-0.5-0.9-1.4-0.4-2.1l6-9.2c0.5-0.7,1.4-0.9,2.1-0.4        c0.7,0.5,0.9,1.4,0.4,2.1l-6,9.2C51.4,75.1,50.9,75.3,50.4,75.3z" fill="#62355C"/></g></g></g><g><g><g><path d="M64.9,40.2c-0.8,0-1.5-0.7-1.5-1.5l0-9.2c0-0.8,0.7-1.5,1.5-1.5c0,0,0,0,0,0c0.8,0,1.5,0.7,1.5,1.5        l0,9.2C66.4,39.5,65.7,40.2,64.9,40.2C64.9,40.2,64.9,40.2,64.9,40.2z" fill="#62355C"/></g></g></g><g><g><g><path d="M78.5,50.1c-0.7,0-1.3-0.5-1.5-1.2c-0.2-0.8,0.3-1.6,1.2-1.8l9.4-2c0.8-0.2,1.6,0.3,1.8,1.2        c0.2,0.8-0.3,1.6-1.2,1.8l-9.4,2C78.7,50.1,78.6,50.1,78.5,50.1z" fill="#62355C"/></g></g></g><g><g><g><path d="M51.3,50.1c-0.1,0-0.2,0-0.3,0L42,48c-0.8-0.2-1.3-1-1.1-1.8c0.2-0.8,1-1.3,1.8-1.1l8.9,2.1        c0.8,0.2,1.3,1,1.1,1.8C52.5,49.6,51.9,50.1,51.3,50.1z" fill="#62355C"/></g></g></g><g><g><g><path d="M30.6,56.4c-0.3,0-0.6-0.1-0.9-0.3L29,55.6c-0.4-0.3-0.6-0.7-0.6-1.2l0-0.4c0-0.8,0.7-1.5,1.5-1.5        c0.4,0,0.7,0.1,1,0.3l9.7-6.9l-3.7-11.7c-0.7-0.1-1.3-0.7-1.3-1.5c0-0.8,0.7-1.5,1.5-1.5l0.9,0c0.6,0,1.2,0.4,1.4,1.1        l4.3,13.8c0.2,0.6,0,1.3-0.6,1.7l-11.7,8.4C31.2,56.3,30.9,56.4,30.6,56.4z" fill="#62355C"/></g></g></g><g><g><g><path d="M64.8,31c-0.3,0-0.6-0.1-0.9-0.3l-11.6-8.5c-0.7-0.5-0.8-1.4-0.3-2.1c0.5-0.7,1.4-0.8,2.1-0.3        l10.7,7.9L75.4,20c0.2-0.2,0.4-0.3,0.6-0.4c0.8-0.3,1.6,0.1,1.9,0.9c0.2,0.6,0,1.4-0.5,1.7l-11.7,8.4        C65.4,30.9,65.1,31,64.8,31z" fill="#62355C"/></g></g></g></g></g></g></svg>